<svg xmlns="http://www.w3.org/2000/svg" xmlns:xlink="http://www.w3.org/1999/xlink" width="500" zoomAndPan="magnify" viewBox="0 0 375 374.999991" height="500" preserveAspectRatio="xMidYMid meet" version="1.0"><defs><g/><clipPath id="de9a1d2567"><path d="M 37.628906 44.644531 L 337.386719 44.644531 L 337.386719 344.40625 L 37.628906 344.40625 Z M 37.628906 44.644531 " clip-rule="nonzero"/></clipPath></defs><g clip-path="url(#de9a1d2567)"><path fill="#000000" d="M 187.507812 344.40625 C 147.492188 344.40625 109.8125 328.828125 81.539062 300.496094 C 53.203125 272.21875 37.628906 234.539062 37.628906 194.523438 C 37.628906 154.507812 53.203125 116.828125 81.539062 88.554688 C 109.8125 60.21875 147.492188 44.644531 187.507812 44.644531 C 227.523438 44.644531 265.203125 60.21875 293.476562 88.554688 C 321.8125 116.886719 337.386719 154.507812 337.386719 194.523438 C 337.386719 234.539062 321.8125 272.21875 293.476562 300.496094 C 265.203125 328.828125 227.523438 344.40625 187.507812 344.40625 M 187.507812 53.628906 C 149.886719 53.628906 114.484375 68.304688 87.886719 94.902344 C 61.289062 121.5 46.613281 156.90625 46.613281 194.523438 C 46.613281 232.144531 61.289062 267.546875 87.886719 294.144531 C 114.484375 320.742188 149.886719 335.417969 187.507812 335.417969 C 225.128906 335.417969 260.53125 320.742188 287.128906 294.144531 C 313.726562 267.546875 328.402344 232.144531 328.402344 194.523438 C 328.402344 156.90625 313.726562 121.5 287.128906 94.902344 C 260.53125 68.304688 225.128906 53.628906 187.507812 53.628906 " fill-opacity="1" fill-rule="nonzero"/></g><g fill="#000000" fill-opacity="1"><g transform="translate(101.670232, 180.325666)"><g><path d="M 22.390625 0 L 22.359375 -13.0625 L 15.953125 -2.296875 L 13.6875 -2.296875 L 7.3125 -12.78125 L 7.3125 0 L 2.578125 0 L 2.578125 -21.765625 L 6.75 -21.765625 L 14.890625 -8.234375 L 22.921875 -21.765625 L 27.046875 -21.765625 L 27.109375 0 Z M 22.390625 0 "/></g></g></g><g fill="#000000" fill-opacity="1"><g transform="translate(133.526164, 180.325666)"><g><path d="M 16.921875 -4.671875 L 6.8125 -4.671875 L 4.875 0 L -0.28125 0 L 9.421875 -21.765625 L 14.390625 -21.765625 L 24.125 0 L 18.84375 0 Z M 15.328125 -8.484375 L 11.875 -16.828125 L 8.421875 -8.484375 Z M 15.328125 -8.484375 "/></g></g></g><g fill="#000000" fill-opacity="1"><g transform="translate(159.508348, 180.325666)"><g><path d="M 7.09375 -17.65625 L 0.125 -17.65625 L 0.125 -21.765625 L 19.09375 -21.765625 L 19.09375 -17.65625 L 12.125 -17.65625 L 12.125 0 L 7.09375 0 Z M 7.09375 -17.65625 "/></g></g></g><g fill="#000000" fill-opacity="1"><g transform="translate(180.89098, 180.325666)"><g><path d="M 19.4375 -4.046875 L 19.4375 0 L 2.578125 0 L 2.578125 -21.765625 L 19.03125 -21.765625 L 19.03125 -17.71875 L 7.59375 -17.71875 L 7.59375 -13 L 17.6875 -13 L 17.6875 -9.078125 L 7.59375 -9.078125 L 7.59375 -4.046875 Z M 19.4375 -4.046875 "/></g></g></g><g fill="#000000" fill-opacity="1"><g transform="translate(203.920749, 180.325666)"><g><path d="M 12.25 0.375 C 9.144531 0.375 6.722656 -0.484375 4.984375 -2.203125 C 3.253906 -3.921875 2.390625 -6.378906 2.390625 -9.578125 L 2.390625 -21.765625 L 7.4375 -21.765625 L 7.4375 -9.765625 C 7.4375 -5.867188 9.050781 -3.921875 12.28125 -3.921875 C 13.851562 -3.921875 15.050781 -4.390625 15.875 -5.328125 C 16.707031 -6.273438 17.125 -7.753906 17.125 -9.765625 L 17.125 -21.765625 L 22.109375 -21.765625 L 22.109375 -9.578125 C 22.109375 -6.378906 21.242188 -3.921875 19.515625 -2.203125 C 17.785156 -0.484375 15.363281 0.375 12.25 0.375 Z M 12.25 0.375 "/></g></g></g><g fill="#000000" fill-opacity="1"><g transform="translate(230.586648, 180.325666)"><g><path d="M 9.734375 0.375 C 8.015625 0.375 6.347656 0.140625 4.734375 -0.328125 C 3.128906 -0.796875 1.84375 -1.398438 0.875 -2.140625 L 2.578125 -5.9375 C 3.515625 -5.25 4.625 -4.695312 5.90625 -4.28125 C 7.1875 -3.875 8.472656 -3.671875 9.765625 -3.671875 C 11.191406 -3.671875 12.25 -3.878906 12.9375 -4.296875 C 13.625 -4.722656 13.96875 -5.289062 13.96875 -6 C 13.96875 -6.519531 13.765625 -6.945312 13.359375 -7.28125 C 12.953125 -7.625 12.429688 -7.898438 11.796875 -8.109375 C 11.171875 -8.316406 10.316406 -8.546875 9.234375 -8.796875 C 7.578125 -9.191406 6.21875 -9.585938 5.15625 -9.984375 C 4.101562 -10.378906 3.195312 -11.007812 2.4375 -11.875 C 1.6875 -12.75 1.3125 -13.910156 1.3125 -15.359375 C 1.3125 -16.617188 1.648438 -17.757812 2.328125 -18.78125 C 3.015625 -19.8125 4.046875 -20.628906 5.421875 -21.234375 C 6.804688 -21.835938 8.492188 -22.140625 10.484375 -22.140625 C 11.867188 -22.140625 13.222656 -21.972656 14.546875 -21.640625 C 15.878906 -21.304688 17.039062 -20.832031 18.03125 -20.21875 L 16.484375 -16.390625 C 14.472656 -17.523438 12.460938 -18.09375 10.453125 -18.09375 C 9.035156 -18.09375 7.988281 -17.863281 7.3125 -17.40625 C 6.644531 -16.957031 6.3125 -16.359375 6.3125 -15.609375 C 6.3125 -14.859375 6.695312 -14.300781 7.46875 -13.9375 C 8.25 -13.582031 9.4375 -13.226562 11.03125 -12.875 C 12.695312 -12.476562 14.054688 -12.082031 15.109375 -11.6875 C 16.171875 -11.289062 17.078125 -10.664062 17.828125 -9.8125 C 18.585938 -8.96875 18.96875 -7.820312 18.96875 -6.375 C 18.96875 -5.132812 18.617188 -4 17.921875 -2.96875 C 17.234375 -1.945312 16.191406 -1.132812 14.796875 -0.53125 C 13.410156 0.0703125 11.722656 0.375 9.734375 0.375 Z M 9.734375 0.375 "/></g></g></g><g fill="#000000" fill-opacity="1"><g transform="translate(252.590843, 180.325666)"><g><path d="M 20.21875 -4.109375 L 20.21875 0 L 1.1875 0 L 1.1875 -3.265625 L 13.125 -17.65625 L 1.4375 -17.65625 L 1.4375 -21.765625 L 19.75 -21.765625 L 19.75 -18.5 L 7.828125 -4.109375 Z M 20.21875 -4.109375 "/></g></g></g><g fill="#000000" fill-opacity="1"><g transform="translate(65.62336, 216.325663)"><g><path d="M 10.515625 -8.546875 L 7.59375 -5.5 L 7.59375 0 L 2.578125 0 L 2.578125 -21.765625 L 7.59375 -21.765625 L 7.59375 -11.59375 L 17.21875 -21.765625 L 22.828125 -21.765625 L 13.8125 -12.0625 L 23.34375 0 L 17.46875 0 Z M 10.515625 -8.546875 "/></g></g></g><g fill="#000000" fill-opacity="1"><g transform="translate(90.79751, 216.325663)"><g><path d="M 16.453125 0 L 12.25 -6.0625 L 7.625 -6.0625 L 7.625 0 L 2.578125 0 L 2.578125 -21.765625 L 12 -21.765625 C 13.925781 -21.765625 15.597656 -21.441406 17.015625 -20.796875 C 18.441406 -20.160156 19.535156 -19.25 20.296875 -18.0625 C 21.066406 -16.882812 21.453125 -15.488281 21.453125 -13.875 C 21.453125 -12.25 21.0625 -10.847656 20.28125 -9.671875 C 19.507812 -8.503906 18.410156 -7.613281 16.984375 -7 L 21.859375 0 Z M 16.359375 -13.875 C 16.359375 -15.09375 15.960938 -16.023438 15.171875 -16.671875 C 14.390625 -17.328125 13.238281 -17.65625 11.71875 -17.65625 L 7.625 -17.65625 L 7.625 -10.078125 L 11.71875 -10.078125 C 13.238281 -10.078125 14.390625 -10.40625 15.171875 -11.0625 C 15.960938 -11.726562 16.359375 -12.664062 16.359375 -13.875 Z M 16.359375 -13.875 "/></g></g></g><g fill="#000000" fill-opacity="1"><g transform="translate(115.816273, 216.325663)"><g><path d="M 19.4375 -4.046875 L 19.4375 0 L 2.578125 0 L 2.578125 -21.765625 L 19.03125 -21.765625 L 19.03125 -17.71875 L 7.59375 -17.71875 L 7.59375 -13 L 17.6875 -13 L 17.6875 -9.078125 L 7.59375 -9.078125 L 7.59375 -4.046875 Z M 19.4375 -4.046875 "/></g></g></g><g fill="#000000" fill-opacity="1"><g transform="translate(138.846042, 216.325663)"><g><path d="M 7.09375 -17.65625 L 0.125 -17.65625 L 0.125 -21.765625 L 19.09375 -21.765625 L 19.09375 -17.65625 L 12.125 -17.65625 L 12.125 0 L 7.09375 0 Z M 7.09375 -17.65625 "/></g></g></g><g fill="#000000" fill-opacity="1"><g transform="translate(160.228674, 216.325663)"><g><path d="M 10.515625 -8.546875 L 7.59375 -5.5 L 7.59375 0 L 2.578125 0 L 2.578125 -21.765625 L 7.59375 -21.765625 L 7.59375 -11.59375 L 17.21875 -21.765625 L 22.828125 -21.765625 L 13.8125 -12.0625 L 23.34375 0 L 17.46875 0 Z M 10.515625 -8.546875 "/></g></g></g><g fill="#000000" fill-opacity="1"><g transform="translate(185.402824, 216.325663)"><g><path d="M 13.125 0.375 C 10.863281 0.375 8.828125 -0.109375 7.015625 -1.078125 C 5.203125 -2.054688 3.78125 -3.398438 2.75 -5.109375 C 1.726562 -6.828125 1.21875 -8.753906 1.21875 -10.890625 C 1.21875 -13.015625 1.726562 -14.929688 2.75 -16.640625 C 3.78125 -18.359375 5.203125 -19.703125 7.015625 -20.671875 C 8.828125 -21.648438 10.863281 -22.140625 13.125 -22.140625 C 15.382812 -22.140625 17.414062 -21.648438 19.21875 -20.671875 C 21.019531 -19.703125 22.4375 -18.359375 23.46875 -16.640625 C 24.507812 -14.929688 25.03125 -13.015625 25.03125 -10.890625 C 25.03125 -8.753906 24.507812 -6.828125 23.46875 -5.109375 C 22.4375 -3.398438 21.019531 -2.054688 19.21875 -1.078125 C 17.414062 -0.109375 15.382812 0.375 13.125 0.375 Z M 13.125 -3.921875 C 14.40625 -3.921875 15.5625 -4.210938 16.59375 -4.796875 C 17.632812 -5.390625 18.453125 -6.210938 19.046875 -7.265625 C 19.640625 -8.328125 19.9375 -9.535156 19.9375 -10.890625 C 19.9375 -12.234375 19.640625 -13.429688 19.046875 -14.484375 C 18.453125 -15.546875 17.632812 -16.367188 16.59375 -16.953125 C 15.5625 -17.546875 14.40625 -17.84375 13.125 -17.84375 C 11.832031 -17.84375 10.664062 -17.546875 9.625 -16.953125 C 8.59375 -16.367188 7.78125 -15.546875 7.1875 -14.484375 C 6.601562 -13.429688 6.3125 -12.234375 6.3125 -10.890625 C 6.3125 -9.535156 6.601562 -8.328125 7.1875 -7.265625 C 7.78125 -6.210938 8.59375 -5.390625 9.625 -4.796875 C 10.664062 -4.210938 11.832031 -3.921875 13.125 -3.921875 Z M 13.125 -3.921875 "/></g></g></g><g fill="#000000" fill-opacity="1"><g transform="translate(213.809095, 216.325663)"><g><path d="M 35.484375 -21.765625 L 28.359375 0 L 22.953125 0 L 18.15625 -14.734375 L 13.21875 0 L 7.828125 0 L 0.6875 -21.765625 L 5.90625 -21.765625 L 10.828125 -6.46875 L 15.953125 -21.765625 L 20.609375 -21.765625 L 25.59375 -6.34375 L 30.65625 -21.765625 Z M 35.484375 -21.765625 "/></g></g></g><g fill="#000000" fill-opacity="1"><g transform="translate(252.129257, 216.325663)"><g><path d="M 9.734375 0.375 C 8.015625 0.375 6.347656 0.140625 4.734375 -0.328125 C 3.128906 -0.796875 1.84375 -1.398438 0.875 -2.140625 L 2.578125 -5.9375 C 3.515625 -5.25 4.625 -4.695312 5.90625 -4.28125 C 7.1875 -3.875 8.472656 -3.671875 9.765625 -3.671875 C 11.191406 -3.671875 12.25 -3.878906 12.9375 -4.296875 C 13.625 -4.722656 13.96875 -5.289062 13.96875 -6 C 13.96875 -6.519531 13.765625 -6.945312 13.359375 -7.28125 C 12.953125 -7.625 12.429688 -7.898438 11.796875 -8.109375 C 11.171875 -8.316406 10.316406 -8.546875 9.234375 -8.796875 C 7.578125 -9.191406 6.21875 -9.585938 5.15625 -9.984375 C 4.101562 -10.378906 3.195312 -11.007812 2.4375 -11.875 C 1.6875 -12.75 1.3125 -13.910156 1.3125 -15.359375 C 1.3125 -16.617188 1.648438 -17.757812 2.328125 -18.78125 C 3.015625 -19.8125 4.046875 -20.628906 5.421875 -21.234375 C 6.804688 -21.835938 8.492188 -22.140625 10.484375 -22.140625 C 11.867188 -22.140625 13.222656 -21.972656 14.546875 -21.640625 C 15.878906 -21.304688 17.039062 -20.832031 18.03125 -20.21875 L 16.484375 -16.390625 C 14.472656 -17.523438 12.460938 -18.09375 10.453125 -18.09375 C 9.035156 -18.09375 7.988281 -17.863281 7.3125 -17.40625 C 6.644531 -16.957031 6.3125 -16.359375 6.3125 -15.609375 C 6.3125 -14.859375 6.695312 -14.300781 7.46875 -13.9375 C 8.25 -13.582031 9.4375 -13.226562 11.03125 -12.875 C 12.695312 -12.476562 14.054688 -12.082031 15.109375 -11.6875 C 16.171875 -11.289062 17.078125 -10.664062 17.828125 -9.8125 C 18.585938 -8.96875 18.96875 -7.820312 18.96875 -6.375 C 18.96875 -5.132812 18.617188 -4 17.921875 -2.96875 C 17.234375 -1.945312 16.191406 -1.132812 14.796875 -0.53125 C 13.410156 0.0703125 11.722656 0.375 9.734375 0.375 Z M 9.734375 0.375 "/></g></g></g><g fill="#000000" fill-opacity="1"><g transform="translate(274.133463, 216.325663)"><g><path d="M 10.515625 -8.546875 L 7.59375 -5.5 L 7.59375 0 L 2.578125 0 L 2.578125 -21.765625 L 7.59375 -21.765625 L 7.59375 -11.59375 L 17.21875 -21.765625 L 22.828125 -21.765625 L 13.8125 -12.0625 L 23.34375 0 L 17.46875 0 Z M 10.515625 -8.546875 "/></g></g></g><g fill="#000000" fill-opacity="1"><g transform="translate(299.307625, 216.325663)"><g><path d="M 2.578125 -21.765625 L 7.625 -21.765625 L 7.625 0 L 2.578125 0 Z M 2.578125 -21.765625 "/></g></g></g></svg>